<?xml version="1.0" encoding="UTF-8"?>
<svg id="Layer_2" data-name="Layer 2" xmlns="http://www.w3.org/2000/svg" viewBox="0 0 173.58 60.45">
  <defs>
    <style>
      .cls-1 {
        fill: #231f20;
      }
    </style>
  </defs>
  <g id="Layer_1-2" data-name="Layer 1">
    <g>
      <g>
        <path class="cls-1" d="M54.19,33.49c1.13,.63,2.06,1.49,2.79,2.57,.73,1.08,1.09,2.3,1.09,3.64s-.84,2.89-2.53,4.63c-1.69,1.74-3.74,3.23-6.16,4.45-2.41,1.23-4.51,1.84-6.29,1.84s-3.07-.74-3.86-2.22c-4.54,6.1-7.1,9.79-7.68,11.08,.03,.13,.04,.32,.04,.57s-.15,.38-.44,.38-.67-.24-1.13-.73c-.46-.49-.69-1.18-.69-2.08,0-.26,.01-.47,.04-.63,.24-1.74,2.66-5.17,7.26-10.29,4.6-5.12,7.92-8.23,9.96-9.34,.42-.21,.74-.32,.95-.32s.43,.07,.65,.2c.22,.13,.34,.29,.34,.47s-.05,.33-.16,.44c-1.98,2.06-3.17,3.31-3.56,3.76l-4.71,5.46c-.05,.08-.08,.16-.08,.24,0,.19,.12,.28,.36,.28,1.06,0,2.49-.3,4.29-.91s3.6-1.37,5.36-2.28c1.77-.91,3.3-1.98,4.59-3.21,1.29-1.23,1.94-2.37,1.94-3.42,0-.87-.83-1.52-2.49-1.94-1.66-.42-3.45-.63-5.36-.63s-3.98,.27-6.2,.81-4.15,1.21-5.8,2c-1.65,.79-3.13,1.62-4.45,2.47-1.32,.86-2.32,1.61-2.99,2.26-.67,.65-1.01,1.07-1.01,1.27s.09,.3,.28,.3,.69-.13,1.5-.4c2.64-.87,5.23-2.04,7.76-3.52,.18-.1,.31-.16,.38-.16s.1,.03,.1,.1-.17,.32-.49,.75c-.33,.44-.79,.96-1.37,1.58-.58,.62-1.21,1.22-1.9,1.8-.69,.58-1.46,1.08-2.32,1.48-.86,.41-1.69,.61-2.49,.61s-1.6-.32-2.38-.97c-.78-.65-1.17-1.53-1.17-2.65s.55-2.34,1.66-3.66c1.11-1.32,2.57-2.57,4.37-3.76,1.81-1.19,4.06-2.19,6.75-3.01,2.69-.82,5.32-1.23,7.88-1.23s5.01,.63,7.36,1.9Z"/>
        <path class="cls-1" d="M60.44,55.3c3.93-2.11,8.26-4.92,12.98-8.43,.24,.19,.36,.41,.36,.67s-.13,.51-.4,.75c-.26,.24-.64,.58-1.13,1.03-.49,.45-1.42,1.25-2.79,2.41-1.37,1.16-2.65,2.22-3.84,3.17-3.11,2.51-5.41,3.98-6.89,4.43-.48,.13-.99,.2-1.54,.2-.9,0-1.35-.7-1.35-2.1,0-.29,.12-.73,.38-1.31,.25-.58,.4-.92,.44-1.01,.04-.09,.07-.16,.1-.22,.03-.05,.05-.1,.08-.14s.04-.08,.04-.14-.08-.08-.24-.08c-.13,0-.57,.35-1.31,1.05-.74,.7-1.35,1.26-1.84,1.68-.49,.42-1.04,.82-1.66,1.19-.62,.37-1.13,.55-1.52,.55-1.06,0-1.58-.49-1.58-1.46,0-.58,.2-1.29,.59-2.14,.92-1.95,2.31-3.91,4.16-5.86,1.85-1.95,3.17-2.94,3.96-2.97,.29,0,.55,.11,.79,.32,.24,.21,.36,.45,.36,.71s-.26,.66-.79,1.19c-.53,.53-1.19,1.21-2,2.04-.81,.83-1.37,1.52-1.7,2.08-.33,.55-.49,.92-.49,1.11s.1,.28,.32,.28,.59-.17,1.15-.51c1.5-1.03,3.23-2.3,5.17-3.8,1.94-1.5,3.19-2.6,3.74-3.29,.13-.47,.53-.71,1.19-.71,1.27,0,1.9,.22,1.9,.67,0,.18-.62,.87-1.86,2.06-3.72,3.56-5.58,5.77-5.58,6.61,0,.13,.06,.2,.18,.2s.34-.08,.65-.24Z"/>
        <path class="cls-1" d="M84.19,31.87c1.37,0,2.06,.37,2.06,1.11,0,1.08-1.04,2.72-3.11,4.91-2.07,2.19-4.15,4.1-6.23,5.74l-3.09,2.49c-.16,.19-.24,.33-.24,.44s.07,.16,.2,.16c2.08-1.35,3.96-2.04,5.62-2.1,.32,0,.61,.09,.87,.28,.9,.74,1.35,1.6,1.35,2.57s-1,2.63-3.01,4.95c.84-.21,2-.76,3.46-1.64,1.46-.88,2.71-1.72,3.74-2.51l1.54-1.19c.24,.18,.36,.41,.36,.67s-.12,.5-.36,.71c-4.35,4.04-7.65,6.06-9.9,6.06-.16,0-.4-.03-.71-.08l.08-.12c-1.56,1.53-3.11,2.8-4.67,3.82s-2.84,1.53-3.84,1.53c-2.48,0-3.72-.85-3.72-2.53,0-.84,.27-1.84,.81-2.99,.54-1.15,1.19-2.24,1.96-3.29,.76-1.04,1.54-2.03,2.32-2.95,.78-.92,1.44-1.66,1.98-2.22,.54-.55,.81-.82,.81-.79,1.87-2.16,3.5-4.16,4.89-6,1.39-1.83,2.3-3.14,2.75-3.92,.45-.78,.9-1.44,1.35-2,.45-.55,.82-.88,1.13-.97,.3-.09,.84-.14,1.6-.14Zm-15.91,25.57c1.08,0,2.49-.76,4.22-2.3,1.73-1.53,3.21-3.13,4.43-4.79,1.23-1.66,1.84-2.75,1.84-3.25,0-.08-.04-.12-.12-.12-1.37,0-2.93,.74-4.67,2.22-1.74,1.48-3.17,3.02-4.3,4.63-1.12,1.61-1.68,2.72-1.68,3.33,0,.18,.09,.28,.28,.28Z"/>
        <path class="cls-1" d="M85.26,56.21c.87,0,2.59-.78,5.17-2.33,2.57-1.56,4.92-3.11,7.03-4.67l3.21-2.34c.24,.19,.36,.41,.36,.67s-.13,.51-.4,.75c-.26,.24-.64,.58-1.13,1.03-.49,.45-1.42,1.25-2.79,2.41-1.37,1.16-2.65,2.22-3.84,3.17-3.11,2.51-5.41,3.98-6.89,4.43-.48,.13-.96,.2-1.46,.2s-.9-.04-1.19-.12c-.29-.08-.61-.25-.95-.51-.69-.58-1.03-1.87-1.03-3.88,0-.55,.24-1.4,.71-2.53s1.26-2.51,2.36-4.12c1.09-1.61,2.38-3.22,3.84-4.83,1.46-1.61,3.33-3.22,5.58-4.83,2.26-1.61,4.66-2.92,7.22-3.92,.4-.13,.75-.2,1.07-.2s.61,.14,.87,.42,.45,.56,.55,.85l.2,.4c0,.61-.94,1.94-2.81,4-1.93,2.14-4.15,4.18-6.67,6.12-2.52,1.94-4.86,3.6-7.03,4.97-1.77,1.16-2.65,2.38-2.65,3.64,0,.82,.22,1.23,.67,1.23Zm3.56-8.19c.66,0,2.66-1.62,6-4.87,3.34-3.25,5.01-5.05,5.01-5.42l-.04-.08-.67,.32c-1.37,.9-3.2,2.43-5.48,4.59-2.28,2.16-3.86,3.85-4.73,5.07-.11,.13-.16,.23-.16,.3s.03,.1,.08,.1Z"/>
        <path class="cls-1" d="M97.38,54.83c-.21,.37-.32,.7-.32,.99s.16,.43,.47,.43c.18,0,.5-.08,.95-.24,4.93-2.59,9.76-5.63,14.49-9.14,.24,.19,.36,.41,.36,.67s-.13,.51-.4,.75c-.26,.24-.64,.58-1.13,1.03-.49,.45-1.42,1.25-2.79,2.41-1.37,1.16-2.65,2.22-3.84,3.17-3.12,2.51-5.41,3.98-6.89,4.43-.47,.13-.99,.2-1.54,.2-2.03,0-3.05-1.08-3.05-3.25,0-.84,.46-2.05,1.39-3.62,.92-1.57,1.87-2.96,2.85-4.16,.98-1.2,1.62-1.87,1.94-2,.47-.29,.99-.44,1.54-.44s1.08,.11,1.58,.32c.16,.08,.24,.18,.24,.32s-.13,.33-.38,.59c-.25,.26-.63,.67-1.15,1.23-.51,.55-1.28,1.51-2.29,2.87-1.02,1.36-1.7,2.5-2.04,3.42Zm9.5-15.6c.26,0,.44,.05,.52,.16,.37,.45,.55,.81,.55,1.09s-.08,.51-.24,.71c-.16,.2-.35,.42-.57,.67-.22,.25-.67,.59-1.35,1.03-.67,.44-1.33,.65-1.96,.65-.48-.08-.71-.37-.71-.87,0-.79,.47-1.56,1.42-2.32,.95-.75,1.73-1.13,2.34-1.13Z"/>
        <path class="cls-1" d="M109.9,55.94c.91,0,1.75-.56,2.53-1.68,.78-1.12,1.33-2.26,1.64-3.4s.47-2.06,.47-2.75c0-.18-.14-.28-.42-.28s-.6,.15-.97,.44l-5.19,4c-.37,.21-.79,.32-1.27,.32s-.71-.17-.71-.52c0-.24,.03-.4,.1-.47,.07-.08,.26-.21,.57-.4,1.95-1.35,4.62-3.54,8-6.57,.4-.53,.75-.79,1.07-.79s.84,.1,1.58,.3c.74,.2,1.11,.43,1.11,.69,0,1.58-.15,3.02-.44,4.31-.29,1.29-.59,2.28-.89,2.95-.3,.67-.46,1.04-.46,1.09s.03,.08,.08,.08,.16-.04,.32-.12c1.98-1,4.5-2.64,7.56-4.91l.95-.71c.24,.19,.36,.41,.36,.67s-.12,.5-.36,.71c-.05,0-.73,.55-2.04,1.66s-2.76,2.32-4.35,3.62-3.31,2.5-5.13,3.58c-1.82,1.08-3.23,1.62-4.24,1.62-2.48,0-3.72-1.49-3.72-4.47,0-.24,.1-.46,.3-.65s.46-.3,.77-.3c0,.13,.07,.34,.22,.61,.14,.28,.3,.51,.46,.69,.48,.45,1.17,.67,2.08,.67Z"/>
        <path class="cls-1" d="M128.81,55.54c.11,0,.32-.08,.63-.24,3.93-2.11,8.26-4.92,12.98-8.43,.24,.19,.36,.41,.36,.67s-.13,.51-.4,.75c-.26,.24-.64,.58-1.13,1.03-.49,.45-1.42,1.25-2.79,2.41-1.37,1.16-2.65,2.22-3.84,3.17-3.11,2.51-5.41,3.98-6.89,4.43-.47,.13-.99,.2-1.54,.2-.9,0-1.35-.7-1.35-2.1,0-.47,.29-1.26,.87-2.35,.58-1.1,.87-1.89,.87-2.4,0-.05-.04-.08-.12-.08s-.28,.12-.59,.36c-3.67,2.85-5.9,4.83-6.69,5.94-.16,.24-.37,.36-.63,.36-.58,0-.95-.28-1.11-.83,0-.79,1.12-2.8,3.34-6.02,2.23-3.22,4.85-6.6,7.86-10.15,3.01-3.55,5.46-6.05,7.36-7.5,.55-.53,1.85-.79,3.88-.79,.32,.08,.47,.21,.47,.4s-.09,.37-.28,.55c-7.6,7.34-12.43,12.42-14.49,15.24-.11,.11-.24,.3-.42,.57-.17,.28-.26,.46-.26,.54l.04,.04c.11,0,.94-.59,2.49-1.76,1.56-1.17,2.72-2.01,3.48-2.51,.24-.24,.74-.36,1.5-.36,.66,.08,.99,.29,.99,.63,0,.11-.03,.2-.08,.28-1.95,2.77-3.13,4.54-3.52,5.3-.79,1.24-1.19,2.06-1.19,2.45,0,.13,.05,.2,.16,.2Z"/>
        <path class="cls-1" d="M139.06,59.54c-2.03,0-3.05-1.24-3.05-3.72,0-1.56,.68-3.21,2.04-4.97,1.36-1.75,2.96-3.19,4.81-4.31,1.85-1.12,3.48-1.68,4.91-1.68,.63,0,1.22,.25,1.76,.75,.54,.5,.81,.99,.81,1.46,0,.87-.62,1.85-1.86,2.95-1.24,1.09-2.54,1.98-3.9,2.65-1.36,.67-2.26,1.01-2.69,1.01s-.76-.2-.97-.59c-.11-.08-.25-.12-.44-.12s-.49,.35-.91,1.05c-.42,.7-.63,1.27-.63,1.7s.16,.71,.48,.81c2,0,4.18-.59,6.53-1.76,2.35-1.17,5.59-3.24,9.74-6.2,.29-.21,.73-.53,1.33-.95,.59-.42,.94-.67,1.05-.75,.24,.19,.36,.41,.36,.67s-.12,.5-.36,.71c-1.32,1.32-3.03,2.8-5.13,4.43-2.1,1.64-4.51,3.19-7.22,4.65-2.72,1.46-4.94,2.2-6.65,2.2Zm8.43-12.67c-.69,0-1.85,.71-3.48,2.12-1.64,1.41-2.45,2.28-2.45,2.59,0,.05,.04,.08,.12,.08,.58,0,1.74-.65,3.46-1.94,1.73-1.29,2.59-2.18,2.59-2.65,0-.13-.08-.2-.24-.2Z"/>
        <path class="cls-1" d="M151.45,51.42c1.45-1,2.97-2.08,4.55-3.25-.84-.58-1.38-1.15-1.62-1.7-.08-.18-.12-.32-.12-.4,0-.53,.17-.88,.51-1.05,.34-.17,.9-.26,1.66-.26,.29,0,1.15,.36,2.57,1.07s2.33,1.07,2.71,1.07,.92-.11,1.6-.34c.69-.22,1.23-.34,1.64-.34s.71,.09,.89,.28c.66,.87,.99,1.4,.99,1.58s-.09,.34-.26,.46c-.17,.12-.71,.5-1.62,1.13-.91,.63-1.8,1.28-2.67,1.94-.87,.66-1.69,1.4-2.46,2.22-.77,.82-1.15,1.48-1.15,1.98,0,.08,.07,.12,.2,.12,1.42,0,6.23-2.89,14.41-8.67,.18,0,.28,.16,.28,.49s-1.04,1.46-3.13,3.4-4.44,3.84-7.07,5.7c-2.63,1.86-4.53,2.79-5.72,2.79-1.85,0-2.77-.92-2.77-2.77,0-1,.34-1.97,1.01-2.91,.67-.94,2.09-2.2,4.26-3.78-.45,0-1.06-.11-1.82-.34-.77-.22-1.25-.49-1.46-.81-.69,.61-1.87,1.62-3.56,3.05-.4,.29-.91,.44-1.54,.44s-.95-.1-.95-.3,.21-.47,.63-.81Z"/>
      </g>
      <g>
        <path class="cls-1" d="M.24,13.66c-.16,0-.24-.2-.24-.59s.34-1.1,1.03-2.12,1.68-2.11,2.99-3.29c1.31-1.17,2.76-2.29,4.37-3.34,1.61-1.06,3.48-1.93,5.6-2.63,2.12-.7,4.23-1.05,6.31-1.05,.21,.08,.48,.18,.81,.3,.33,.12,.77,.37,1.31,.75,.54,.38,.81,.73,.81,1.05s-.07,.55-.2,.71c-2.03,1.85-4.31,4.08-6.83,6.69-2.52,2.61-4.45,4.79-5.8,6.53l-2.85,3.72c-.16,.24-.24,.42-.24,.55v.04l.63-.32c.05-.03,.09-.05,.12-.08,9.63-6.78,16.08-11.58,19.36-14.41,.08-.1,.18-.16,.32-.16s.22,.04,.28,.12c.05,.08,.3,.32,.75,.73,.45,.41,.67,.71,.67,.91s-.08,.36-.24,.5c-2.61,2.48-5.28,5.59-8,9.34-2.72,3.75-4.08,6.64-4.08,8.67,0,.24,.12,.36,.36,.36,.53,0,1.77-.71,3.72-2.14,1.95-1.42,4.18-3.23,6.67-5.42,2.49-2.19,5.13-4.88,7.92-8.06,2.78-3.18,5.06-6.27,6.83-9.28,.24-.5,.42-.92,.55-1.25,.13-.33,.34-.49,.61-.49s.57,.39,.87,1.17c.3,.78,.46,1.46,.46,2.04,0,.92-1.06,2.77-3.17,5.54-2.11,2.77-4.58,5.63-7.4,8.59-2.82,2.96-5.82,5.59-8.99,7.9-3.17,2.31-5.66,3.46-7.48,3.46-.87,0-1.74-.34-2.59-1.03-.86-.69-1.29-1.79-1.29-3.33,0-1.9,.57-3.85,1.7-5.86,.45-.79,.99-1.5,1.62-2.14l.91-1.07,.16-.32v-.04c0-.05-.01-.08-.04-.08-.08,0-.2,.08-.36,.24-5.89,5.17-9.87,8.61-11.96,10.31-2.08,1.7-3.31,2.55-3.68,2.55s-.67-.18-.91-.55c-.11-.13-.22-.27-.34-.42-.12-.14-.2-.25-.26-.32-.05-.07-.11-.13-.16-.2-.05-.07-.09-.11-.12-.14-.03-.13-.04-.33-.04-.59s.09-.65,.28-1.15c.18-.5,.36-.98,.53-1.44,.17-.46,.67-1.44,1.48-2.93,.82-1.49,1.79-3,2.93-4.51,1.13-1.52,2.8-3.37,4.99-5.56,2.19-2.19,4.64-4.3,7.36-6.33,.5-.4,.75-.65,.75-.75s-.05-.16-.16-.16c-1.98,0-5.27,1.32-9.88,3.96C4.44,9.49,1.62,11.64,.59,13.3c-.08,.24-.2,.36-.36,.36Z"/>
        <path class="cls-1" d="M37.49,28.15c-2.03,0-3.05-1.24-3.05-3.72,0-1.56,.68-3.21,2.04-4.97,1.36-1.75,2.96-3.19,4.81-4.31,1.85-1.12,3.48-1.68,4.91-1.68,.63,0,1.22,.25,1.76,.75,.54,.5,.81,.99,.81,1.46,0,.87-.62,1.85-1.86,2.95-1.24,1.09-2.54,1.98-3.9,2.65s-2.26,1.01-2.69,1.01-.76-.2-.97-.59c-.11-.08-.25-.12-.44-.12s-.49,.35-.91,1.05c-.42,.7-.63,1.27-.63,1.7s.16,.71,.48,.81c2,0,4.18-.59,6.53-1.76,2.35-1.17,5.59-3.24,9.74-6.2,.29-.21,.73-.53,1.33-.95,.59-.42,.94-.67,1.05-.75,.24,.19,.36,.41,.36,.67s-.12,.5-.36,.71c-1.32,1.32-3.03,2.8-5.13,4.43-2.1,1.64-4.51,3.19-7.22,4.65-2.72,1.46-4.94,2.2-6.65,2.2Zm8.43-12.67c-.69,0-1.85,.71-3.48,2.12-1.64,1.41-2.45,2.28-2.45,2.59,0,.05,.04,.08,.12,.08,.58,0,1.73-.65,3.46-1.94s2.59-2.18,2.59-2.65c0-.13-.08-.2-.24-.2Z"/>
        <path class="cls-1" d="M66.27,.47c1.37,0,2.06,.37,2.06,1.11,0,1.08-1.04,2.72-3.11,4.91s-4.15,4.1-6.23,5.74l-3.09,2.49c-.16,.18-.24,.33-.24,.44s.07,.16,.2,.16c2.08-1.35,3.96-2.04,5.62-2.1,.32,0,.61,.09,.87,.28,.9,.74,1.35,1.6,1.35,2.57s-1,2.63-3.01,4.95c.84-.21,2-.76,3.46-1.64,1.46-.88,2.71-1.72,3.74-2.51l1.54-1.19c.24,.18,.36,.41,.36,.67s-.12,.5-.36,.71c-4.35,4.04-7.65,6.06-9.9,6.06-.16,0-.4-.03-.71-.08l.08-.12c-1.56,1.53-3.11,2.8-4.67,3.82-1.56,1.02-2.84,1.52-3.84,1.52-2.48,0-3.72-.84-3.72-2.53,0-.84,.27-1.84,.81-2.99,.54-1.15,1.19-2.24,1.96-3.29,.76-1.04,1.54-2.03,2.32-2.95,.78-.92,1.44-1.66,1.98-2.22,.54-.55,.81-.82,.81-.79,1.87-2.16,3.5-4.16,4.89-6,1.39-1.83,2.3-3.14,2.75-3.92,.45-.78,.9-1.44,1.35-2,.45-.55,.82-.88,1.13-.97,.3-.09,.84-.14,1.6-.14Zm-15.91,25.57c1.08,0,2.49-.76,4.22-2.3,1.73-1.53,3.21-3.13,4.43-4.79,1.23-1.66,1.84-2.74,1.84-3.25,0-.08-.04-.12-.12-.12-1.37,0-2.93,.74-4.67,2.22-1.74,1.48-3.17,3.02-4.29,4.63-1.12,1.61-1.68,2.72-1.68,3.33,0,.19,.09,.28,.28,.28Z"/>
      </g>
    </g>
  </g>
</svg>